<svg xmlns="http://www.w3.org/2000/svg" xmlns:xlink="http://www.w3.org/1999/xlink" viewBox="0 0 500 500" width="500" height="500" preserveAspectRatio="xMidYMid meet" style="width: 100%; height: 100%; transform: translate3d(0px, 0px, 0px); content-visibility: visible;"><defs><clipPath id="__lottie_element_2"><rect width="500" height="500" x="0" y="0"/></clipPath></defs><g clip-path="url(#__lottie_element_2)"><g transform="matrix(-0.44221508502960205,-0.896892786026001,0.896892786026001,-0.44221508502960205,99.60862731933594,616.8812255859375)" opacity="1" style="display: block;"><g opacity="1" transform="matrix(1,0,0,1,250,250)"><path fill="rgb(255,199,56)" fill-opacity="1" d=" M145.4040069580078,127.36699676513672 C145.4040069580078,127.36699676513672 126.84300231933594,88.64800262451172 126.84300231933594,88.64800262451172 C126.84300231933594,88.64800262451172 6.60699987411499,-161.9010009765625 6.60699987411499,-161.9010009765625 C5.929999828338623,-163.31100463867188 4.395999908447266,-164.1020050048828 2.8559999465942383,-163.83599853515625 C1.4630000591278076,-163.59500122070312 0.367000013589859,-162.54600524902344 0.04699999839067459,-161.197998046875 C0.04699999839067459,-161.197998046875 -24.621999740600586,-112.79499816894531 -24.621999740600586,-112.79499816894531 C-30.76099967956543,-100.7490005493164 -35.82099914550781,-90.81900024414062 -35.917999267578125,-90.62899780273438 C-35.917999267578125,-90.62899780273438 -36.106998443603516,-90.25800323486328 -36.106998443603516,-90.25800323486328 C-36.106998443603516,-90.25800323486328 -36.10599899291992,-90.25700378417969 -36.10599899291992,-90.25700378417969 C-36.36000061035156,-89.76200103759766 -37.61899948120117,-87.29000091552734 -44.37099838256836,-74.03800201416016 C-44.37099838256836,-74.03800201416016 -45.20000076293945,-72.41200256347656 -45.20000076293945,-72.41200256347656 C-50.125999450683594,-62.74399948120117 -54.14500045776367,-54.856998443603516 -54.292999267578125,-54.56700134277344 C-54.301998138427734,-54.54899978637695 -54.310001373291016,-54.534000396728516 -54.319000244140625,-54.51599884033203 C-54.319000244140625,-54.51599884033203 -63.3849983215332,-36.71900177001953 -63.3849983215332,-36.71900177001953 C-68.24400329589844,-27.18000030517578 -72.25299835205078,-19.308000564575195 -72.33100128173828,-19.152999877929688 C-72.33100128173828,-19.152999877929688 -72.45099639892578,-18.916000366210938 -72.45099639892578,-18.916000366210938 C-72.45099639892578,-18.916000366210938 -72.4280014038086,-18.90399932861328 -72.4280014038086,-18.90399932861328 C-73.03099822998047,-17.781999588012695 -74.88999938964844,-14.131999969482422 -81.58200073242188,-0.9879999756813049 C-86.4800033569336,8.631999969482422 -90.49500274658203,16.511999130249023 -90.7040023803711,16.91900062561035 C-90.7509994506836,17.006000518798828 -90.80999755859375,17.117000579833984 -90.86499786376953,17.224000930786133 C-90.94599914550781,17.3799991607666 -96.41899871826172,28.11400032043457 -102.1259994506836,39.308998107910156 C-102.1259994506836,39.308998107910156 -145.36700439453125,124.14700317382812 -145.36700439453125,124.14700317382812 C-145.78900146484375,124.9739990234375 -145.86399841308594,125.93499755859375 -145.57699584960938,126.81800079345703 C-145.28900146484375,127.7020034790039 -144.66400146484375,128.4340057373047 -143.83599853515625,128.85499572753906 C-99.88099670410156,151.21499633789062 -50.16999816894531,163.3209991455078 -0.07699999958276749,163.86700439453125 C1.1490000486373901,163.8800048828125 2.368000030517578,163.88699340820312 3.5920000076293945,163.88699340820312 C52.62099838256836,163.88699340820312 99.76499938964844,153.177001953125 143.76400756835938,132.03399658203125 C145.5050048828125,131.197998046875 146.23899841308594,129.10800170898438 145.4040069580078,127.36699676513672z"/></g><g opacity="0.5" transform="matrix(1,0,0,1,178.2100067138672,250.1230010986328)" style="mix-blend-mode: multiply;"><path fill="rgb(255,199,56)" fill-opacity="1" d=" M73.95800018310547,-163.75599670410156 C72.9020004272461,-163.33799743652344 72.10199737548828,-162.43600463867188 71.83699798583984,-161.3209991455078 C71.83699798583984,-161.3209991455078 47.16899871826172,-112.91799926757812 47.16899871826172,-112.91799926757812 C41.029998779296875,-100.87200164794922 35.96900177001953,-90.94200134277344 35.87200164794922,-90.75199890136719 C35.87200164794922,-90.75199890136719 35.683998107910156,-90.37999725341797 35.683998107910156,-90.37999725341797 C35.683998107910156,-90.37999725341797 35.685001373291016,-90.37999725341797 35.685001373291016,-90.37999725341797 C35.430999755859375,-89.88500213623047 34.17100143432617,-87.41300201416016 27.41900062561035,-74.16100311279297 C27.41900062561035,-74.16100311279297 26.59000015258789,-72.53500366210938 26.59000015258789,-72.53500366210938 C21.663999557495117,-62.867000579833984 17.645999908447266,-54.97999954223633 17.49799919128418,-54.689998626708984 C17.48900032043457,-54.672000885009766 17.481000900268555,-54.65599822998047 17.472000122070312,-54.63800048828125 C17.472000122070312,-54.63800048828125 8.404999732971191,-36.840999603271484 8.404999732971191,-36.840999603271484 C3.5460000038146973,-27.302000045776367 -0.4620000123977661,-19.430999755859375 -0.5400000214576721,-19.275999069213867 C-0.5400000214576721,-19.275999069213867 -0.6600000262260437,-19.038999557495117 -0.6600000262260437,-19.038999557495117 C-0.6600000262260437,-19.038999557495117 -0.6380000114440918,-19.027000427246094 -0.6380000114440918,-19.027000427246094 C-1.2410000562667847,-17.905000686645508 -3.0999999046325684,-14.255000114440918 -9.791999816894531,-1.1109999418258667 C-14.6899995803833,8.508999824523926 -18.704999923706055,16.388999938964844 -18.913999557495117,16.79599952697754 C-18.961000442504883,16.882999420166016 -19.020000457763672,16.993999481201172 -19.075000762939453,17.10099983215332 C-19.1560001373291,17.256999969482422 -24.628000259399414,27.990999221801758 -30.334999084472656,39.18600082397461 C-30.334999084472656,39.18600082397461 -73.5770034790039,124.02400207519531 -73.5770034790039,124.02400207519531 C-73.9990005493164,124.85099792480469 -74.0739974975586,125.81199645996094 -73.78700256347656,126.69499969482422 C-73.4990005493164,127.5790023803711 -72.87300109863281,128.31100463867188 -72.04499816894531,128.73199462890625 C-28.09000015258789,151.0919952392578 21.621000289916992,163.19900512695312 71.71399688720703,163.7449951171875 C72.46399688720703,163.7530059814453 73.20999908447266,163.7530059814453 73.95800018310547,163.75599670410156 C73.95800018310547,163.75599670410156 73.95800018310547,-163.75599670410156 73.95800018310547,-163.75599670410156z"/></g></g><g transform="matrix(-0.44221508502960205,-0.896892786026001,0.896892786026001,-0.44221508502960205,99.61185455322266,616.8807373046875)" opacity="1" style="display: block;"><g opacity="1" transform="matrix(1,0,0,1,250,373.2279968261719)"><path fill="rgb(242,76,0)" fill-opacity="1" d=" M145.4040069580078,4.138999938964844 C145.4040069580078,4.138999938964844 126.84400177001953,-34.577999114990234 126.84400177001953,-34.577999114990234 C126.84400177001953,-34.577999114990234 125.34400177001953,-37.702999114990234 125.34400177001953,-37.702999114990234 C125.34400177001953,-37.702999114990234 122.16600036621094,-36.22100067138672 122.16600036621094,-36.22100067138672 C84.0719985961914,-17.884000778198242 43.12799835205078,-8.779999732971191 0.4659999907016754,-9.28499984741211 C-41.47200012207031,-9.739999771118164 -83.48100280761719,-20.069000244140625 -121.02200317382812,-39.15299987792969 C-121.02200317382812,-39.15299987792969 -124.17500305175781,-40.659000396728516 -124.17500305175781,-40.659000396728516 C-124.17500305175781,-40.659000396728516 -125.72599792480469,-37.62099838256836 -125.72599792480469,-37.62099838256836 C-125.72599792480469,-37.62099838256836 -145.36700439453125,0.9190000295639038 -145.36700439453125,0.9190000295639038 C-145.78799438476562,1.746000051498413 -145.86399841308594,2.7070000171661377 -145.57699584960938,3.5910000801086426 C-145.28900146484375,4.473999977111816 -144.66400146484375,5.205999851226807 -143.83599853515625,5.626999855041504 C-99.88099670410156,27.98699951171875 -50.16999816894531,40.09299850463867 -0.07699999958276749,40.638999938964844 C1.1490000486373901,40.652000427246094 2.368000030517578,40.659000396728516 3.5920000076293945,40.659000396728516 C52.62099838256836,40.659000396728516 99.76499938964844,29.948999404907227 143.76400756835938,8.805999755859375 C145.5050048828125,7.96999979019165 146.23899841308594,5.88100004196167 145.4040069580078,4.138999938964844z"/></g><g opacity="0.5" transform="matrix(1,0,0,1,178.2100067138672,373.2239990234375)" style="mix-blend-mode: multiply;"><path fill="rgb(242,76,0)" fill-opacity="1" d=" M73.95800018310547,-9.28499984741211 C73.38999938964844,-9.288000106811523 72.82599639892578,-9.274999618530273 72.25700378417969,-9.281999588012695 C30.319000244140625,-9.737000465393066 -11.690999984741211,-20.065000534057617 -49.231998443603516,-39.14899826049805 C-49.231998443603516,-39.14899826049805 -52.3849983215332,-40.654998779296875 -52.3849983215332,-40.654998779296875 C-52.3849983215332,-40.654998779296875 -53.93600082397461,-37.61800003051758 -53.93600082397461,-37.61800003051758 C-53.93600082397461,-37.61800003051758 -73.5770034790039,0.921999990940094 -73.5770034790039,0.921999990940094 C-73.99800109863281,1.7489999532699585 -74.0739974975586,2.7100000381469727 -73.78700256347656,3.5940001010894775 C-73.4990005493164,4.4770002365112305 -72.87300109863281,5.209000110626221 -72.04499816894531,5.630000114440918 C-28.09000015258789,27.989999771118164 21.621000289916992,40.09700012207031 71.71399688720703,40.643001556396484 C72.46399688720703,40.6510009765625 73.20999908447266,40.652000427246094 73.95800018310547,40.654998779296875 C73.95800018310547,40.654998779296875 73.95800018310547,-9.28499984741211 73.95800018310547,-9.28499984741211z"/></g></g><g transform="matrix(3.4996984004974365,0.046075865626335144,-0.046075865626335144,3.4996984004974365,230.19805908203125,269.9122619628906)" opacity="1" style="display: block;"><g opacity="1" transform="matrix(1,0,0,1,0,0)"><path fill="rgb(242,76,0)" fill-opacity="1" d=" M5.951000213623047,-12.038999557495117 C5.951000213623047,-8.751999855041504 3.2869999408721924,-6.0879998207092285 0,-6.0879998207092285 C-3.2869999408721924,-6.0879998207092285 -5.951000213623047,-8.751999855041504 -5.951000213623047,-12.038999557495117 C-5.951000213623047,-15.326000213623047 -3.2869999408721924,-17.989999771118164 0,-17.989999771118164 C3.2869999408721924,-17.989999771118164 5.951000213623047,-15.326000213623047 5.951000213623047,-12.038999557495117z"/></g></g><g transform="matrix(3.4996984004974365,0.046075865626335144,-0.046075865626335144,3.4996984004974365,230.22705078125,267.68231201171875)" opacity="1" style="display: block;"><g opacity="1" transform="matrix(1,0,0,1,0,0)"><path fill="rgb(242,76,0)" fill-opacity="1" d=" M17.808000564575195,9.10099983215332 C17.808000564575195,12.387999534606934 15.144000053405762,15.052000045776367 11.857000350952148,15.052000045776367 C8.569999694824219,15.052000045776367 5.906000137329102,12.387999534606934 5.906000137329102,9.10099983215332 C5.906000137329102,5.814000129699707 8.569999694824219,3.1489999294281006 11.857000350952148,3.1489999294281006 C15.144000053405762,3.1489999294281006 17.808000564575195,5.814000129699707 17.808000564575195,9.10099983215332z"/></g></g><g transform="matrix(3.4996984004974365,0.046075865626335144,-0.046075865626335144,3.4996984004974365,230.21771240234375,268.35546875)" opacity="1" style="display: block;"><path fill="rgb(242,76,0)" fill-opacity="1" d=" M-9.144000053405762,9.10099983215332 C-9.144000053405762,12.387999534606934 -11.807999610900879,15.052000045776367 -15.095000267028809,15.052000045776367 C-18.381999969482422,15.052000045776367 -21.04599952697754,12.387999534606934 -21.04599952697754,9.10099983215332 C-21.04599952697754,5.814000129699707 -18.381999969482422,3.1489999294281006 -15.095000267028809,3.1489999294281006 C-11.807999610900879,3.1489999294281006 -9.144000053405762,5.814000129699707 -9.144000053405762,9.10099983215332z"/><g opacity="1" transform="matrix(1,0,0,1,0,0)"/></g><g transform="matrix(3.4996984004974365,0.046075865626335144,-0.046075865626335144,3.4996984004974365,230.232177734375,267.3215637207031)" opacity="1" style="display: block;"><g opacity="1" transform="matrix(1,0,0,1,0,0)"><path fill="rgb(255,199,56)" fill-opacity="1" d=" M45.82899856567383,24.35776710510254 C45.82899856567383,24.35776710510254 39.69499969482422,24.35904312133789 39.69499969482422,24.35904312133789 C36.30964660644531,24.3597469329834 30.424301147460938,24.360441207885742 26.56100082397461,24.360593795776367 C26.56100082397461,24.360593795776367 18.811681747436523,24.360897064208984 18.811681747436523,24.360897064208984 C14.948382377624512,24.36104965209961 11.733708381652832,24.36452865600586 11.637672424316406,24.368661880493164 C11.637672424316406,24.368661880493164 11.637672424316406,24.368661880493164 11.637672424316406,24.368661880493164 C11.541635513305664,24.37279510498047 11.45576000213623,24.80998420715332 11.446028709411621,25.344310760498047 C11.446028709411621,25.344310760498047 11.446028709411621,25.344310760498047 11.446028709411621,25.344310760498047 C11.436297416687012,25.878639221191406 8.860284805297852,26.313064575195312 5.697283744812012,26.313793182373047 C5.697283744812012,26.313793182373047 5.697283744812012,26.313793182373047 5.697283744812012,26.313793182373047 C2.534282922744751,26.31452178955078 -0.03521129861474037,25.88068962097168 -0.03691429644823074,25.34563446044922 C-0.03691429644823074,25.34563446044922 -0.03691429644823074,25.34563446044922 -0.03691429644823074,25.34563446044922 C-0.038617294281721115,24.810577392578125 -0.10642560571432114,24.37401580810547 -0.18823835253715515,24.371383666992188 C-0.18823835253715515,24.371383666992188 -0.18823835253715515,24.371383666992188 -0.18823835253715515,24.371383666992188 C-0.27005109190940857,24.36875343322754 -2.7575364112854004,24.367530822753906 -5.739421844482422,24.368656158447266 C-5.739421844482422,24.368656158447266 -5.739421844482422,24.368656158447266 -5.739421844482422,24.368656158447266 C-8.721307754516602,24.369779586791992 -11.216870307922363,24.372310638427734 -11.308629989624023,24.374303817749023 C-11.308629989624023,24.374303817749023 -11.308629989624023,24.374303817749023 -11.308629989624023,24.374303817749023 C-11.400390625,24.376296997070312 -11.475881576538086,24.96129608154297 -11.47709846496582,25.679813385009766 C-11.47709846496582,25.679813385009766 -11.47709846496582,25.679813385009766 -11.47709846496582,25.679813385009766 C-11.478314399719238,26.398332595825195 -14.044450759887695,26.981714248657227 -17.20380210876465,26.981714248657227 C-17.20380210876465,26.981714248657227 -17.20380210876465,26.981714248657227 -17.20380210876465,26.981714248657227 C-20.3631534576416,26.981714248657227 -22.93047523498535,26.398332595825195 -22.933151245117188,25.679813385009766 C-22.933151245117188,25.679813385009766 -22.933151245117188,25.679813385009766 -22.933151245117188,25.679813385009766 C-22.935827255249023,24.96129608154297 -23.019920349121094,24.376800537109375 -23.12081527709961,24.375429153442383 C-23.12081527709961,24.375429153442383 -23.12081527709961,24.375429153442383 -23.12081527709961,24.375429153442383 C-23.221712112426758,24.37405776977539 -26.440332412719727,24.373390197753906 -30.303632736206055,24.37394142150879 C-30.303632736206055,24.37394142150879 -45.83599853515625,24.37615203857422 -45.83599853515625,24.37615203857422"/><path fill="rgb(255,199,56)" fill-opacity="0.5" d=" M45.82899856567383,24.35776710510254 C45.82899856567383,24.35776710510254 39.69499969482422,24.35904312133789 39.69499969482422,24.35904312133789 C36.30964660644531,24.3597469329834 30.424301147460938,24.360441207885742 26.56100082397461,24.360593795776367 C26.56100082397461,24.360593795776367 18.811681747436523,24.360897064208984 18.811681747436523,24.360897064208984 C14.948382377624512,24.36104965209961 11.733708381652832,24.36452865600586 11.637672424316406,24.368661880493164 C11.637672424316406,24.368661880493164 11.637672424316406,24.368661880493164 11.637672424316406,24.368661880493164 C11.541635513305664,24.37279510498047 11.45576000213623,24.80998420715332 11.446028709411621,25.344310760498047 C11.446028709411621,25.344310760498047 11.446028709411621,25.344310760498047 11.446028709411621,25.344310760498047 C11.436297416687012,25.878639221191406 8.860284805297852,26.313064575195312 5.697283744812012,26.313793182373047 C5.697283744812012,26.313793182373047 5.697283744812012,26.313793182373047 5.697283744812012,26.313793182373047 C2.534282922744751,26.31452178955078 -0.03521129861474037,25.88068962097168 -0.03691429644823074,25.34563446044922 C-0.03691429644823074,25.34563446044922 -0.03691429644823074,25.34563446044922 -0.03691429644823074,25.34563446044922 C-0.038617294281721115,24.810577392578125 -0.10642560571432114,24.37401580810547 -0.18823835253715515,24.371383666992188 C-0.18823835253715515,24.371383666992188 -0.18823835253715515,24.371383666992188 -0.18823835253715515,24.371383666992188 C-0.27005109190940857,24.36875343322754 -2.7575364112854004,24.367530822753906 -5.739421844482422,24.368656158447266 C-5.739421844482422,24.368656158447266 -5.739421844482422,24.368656158447266 -5.739421844482422,24.368656158447266 C-8.721307754516602,24.369779586791992 -11.216870307922363,24.372310638427734 -11.308629989624023,24.374303817749023 C-11.308629989624023,24.374303817749023 -11.308629989624023,24.374303817749023 -11.308629989624023,24.374303817749023 C-11.400390625,24.376296997070312 -11.475881576538086,24.96129608154297 -11.47709846496582,25.679813385009766 C-11.47709846496582,25.679813385009766 -11.47709846496582,25.679813385009766 -11.47709846496582,25.679813385009766 C-11.478314399719238,26.398332595825195 -14.044450759887695,26.981714248657227 -17.20380210876465,26.981714248657227 C-17.20380210876465,26.981714248657227 -17.20380210876465,26.981714248657227 -17.20380210876465,26.981714248657227 C-20.3631534576416,26.981714248657227 -22.93047523498535,26.398332595825195 -22.933151245117188,25.679813385009766 C-22.933151245117188,25.679813385009766 -22.933151245117188,25.679813385009766 -22.933151245117188,25.679813385009766 C-22.935827255249023,24.96129608154297 -23.019920349121094,24.376800537109375 -23.12081527709961,24.375429153442383 C-23.12081527709961,24.375429153442383 -23.12081527709961,24.375429153442383 -23.12081527709961,24.375429153442383 C-23.221712112426758,24.37405776977539 -26.440332412719727,24.373390197753906 -30.303632736206055,24.37394142150879 C-30.303632736206055,24.37394142150879 -45.83599853515625,24.37615203857422 -45.83599853515625,24.37615203857422" style="mix-blend-mode: multiply;"/><path stroke-linecap="round" stroke-linejoin="round" fill-opacity="0" stroke="rgb(18,19,49)" stroke-opacity="1" stroke-width="2.3800000000000003" d=" M45.82899856567383,24.35776710510254 C45.82899856567383,24.35776710510254 39.69499969482422,24.35904312133789 39.69499969482422,24.35904312133789 C36.30964660644531,24.3597469329834 30.424301147460938,24.360441207885742 26.56100082397461,24.360593795776367 C26.56100082397461,24.360593795776367 18.811681747436523,24.360897064208984 18.811681747436523,24.360897064208984 C14.948382377624512,24.36104965209961 11.733708381652832,24.36452865600586 11.637672424316406,24.368661880493164 C11.637672424316406,24.368661880493164 11.637672424316406,24.368661880493164 11.637672424316406,24.368661880493164 C11.541635513305664,24.37279510498047 11.45576000213623,24.80998420715332 11.446028709411621,25.344310760498047 C11.446028709411621,25.344310760498047 11.446028709411621,25.344310760498047 11.446028709411621,25.344310760498047 C11.436297416687012,25.878639221191406 8.860284805297852,26.313064575195312 5.697283744812012,26.313793182373047 C5.697283744812012,26.313793182373047 5.697283744812012,26.313793182373047 5.697283744812012,26.313793182373047 C2.534282922744751,26.31452178955078 -0.03521129861474037,25.88068962097168 -0.03691429644823074,25.34563446044922 C-0.03691429644823074,25.34563446044922 -0.03691429644823074,25.34563446044922 -0.03691429644823074,25.34563446044922 C-0.038617294281721115,24.810577392578125 -0.10642560571432114,24.37401580810547 -0.18823835253715515,24.371383666992188 C-0.18823835253715515,24.371383666992188 -0.18823835253715515,24.371383666992188 -0.18823835253715515,24.371383666992188 C-0.27005109190940857,24.36875343322754 -2.7575364112854004,24.367530822753906 -5.739421844482422,24.368656158447266 C-5.739421844482422,24.368656158447266 -5.739421844482422,24.368656158447266 -5.739421844482422,24.368656158447266 C-8.721307754516602,24.369779586791992 -11.216870307922363,24.372310638427734 -11.308629989624023,24.374303817749023 C-11.308629989624023,24.374303817749023 -11.308629989624023,24.374303817749023 -11.308629989624023,24.374303817749023 C-11.400390625,24.376296997070312 -11.475881576538086,24.96129608154297 -11.47709846496582,25.679813385009766 C-11.47709846496582,25.679813385009766 -11.47709846496582,25.679813385009766 -11.47709846496582,25.679813385009766 C-11.478314399719238,26.398332595825195 -14.044450759887695,26.981714248657227 -17.20380210876465,26.981714248657227 C-17.20380210876465,26.981714248657227 -17.20380210876465,26.981714248657227 -17.20380210876465,26.981714248657227 C-20.3631534576416,26.981714248657227 -22.93047523498535,26.398332595825195 -22.933151245117188,25.679813385009766 C-22.933151245117188,25.679813385009766 -22.933151245117188,25.679813385009766 -22.933151245117188,25.679813385009766 C-22.935827255249023,24.96129608154297 -23.019920349121094,24.376800537109375 -23.12081527709961,24.375429153442383 C-23.12081527709961,24.375429153442383 -23.12081527709961,24.375429153442383 -23.12081527709961,24.375429153442383 C-23.221712112426758,24.37405776977539 -26.440332412719727,24.373390197753906 -30.303632736206055,24.37394142150879 C-30.303632736206055,24.37394142150879 -45.83599853515625,24.37615203857422 -45.83599853515625,24.37615203857422"/></g></g><g transform="matrix(3.4996984004974365,0.046075865626335144,-0.046075865626335144,3.4996984004974365,230.232177734375,267.3215637207031)" opacity="1" style="display: block;"><g opacity="1" transform="matrix(1,0,0,1,0,0)"><path stroke-linecap="round" stroke-linejoin="round" fill-opacity="0" stroke="rgb(18,19,49)" stroke-opacity="1" stroke-width="2.3800000000000003" d=" M2.2780001163482666,-38.71799850463867 C11.677000045776367,-31.55900001525879 19.606000900268555,-22.180999755859375 25.211000442504883,-10.878999710083008 C30.81599998474121,0.4230000078678131 33.47700119018555,12.402999877929688 33.487998962402344,24.218000411987305"/></g></g><g transform="matrix(3.4996984004974365,0.046075865626335144,-0.046075865626335144,3.4996984004974365,230.232177734375,267.3215637207031)" opacity="1" style="display: block;"><g opacity="1" transform="matrix(1,0,0,1,0,0)"><path stroke-linecap="round" stroke-linejoin="round" fill-opacity="0" stroke="rgb(18,19,49)" stroke-opacity="1" stroke-width="2.3800000000000003" d=" M45.75600051879883,24.187999725341797 C45.74700164794922,10.553000450134277 42.66699981689453,-3.2850000858306885 36.19900131225586,-16.327999114990234 C29.731000900268555,-29.371000289916992 20.57200050354004,-40.194000244140625 9.72700023651123,-48.465999603271484 C9.72700023651123,-48.465999603271484 2.2780001163482666,-38.71900177001953 2.2780001163482666,-38.71900177001953 C2.2780001163482666,-38.71900177001953 -45.909000396728516,24.388999938964844 -45.909000396728516,24.388999938964844"/></g></g><g transform="matrix(3.4996984004974365,0.046075865626335144,-0.046075865626335144,3.4996984004974365,230.19805908203125,269.9122619628906)" opacity="1" style="display: block;"><g opacity="1" transform="matrix(1,0,0,1,0,0)"><path stroke-linecap="round" stroke-linejoin="round" fill-opacity="0" stroke="rgb(18,19,49)" stroke-opacity="1" stroke-width="2.3800000000000003" d=" M5.951000213623047,-12.038999557495117 C5.951000213623047,-8.751999855041504 3.2869999408721924,-6.0879998207092285 0,-6.0879998207092285 C-3.2869999408721924,-6.0879998207092285 -5.951000213623047,-8.751999855041504 -5.951000213623047,-12.038999557495117 C-5.951000213623047,-15.326000213623047 -3.2869999408721924,-17.989999771118164 0,-17.989999771118164 C3.2869999408721924,-17.989999771118164 5.951000213623047,-15.326000213623047 5.951000213623047,-12.038999557495117z"/></g></g><g transform="matrix(3.4996984004974365,0.046075865626335144,-0.046075865626335144,3.4996984004974365,230.22705078125,267.68231201171875)" opacity="1" style="display: block;"><g opacity="1" transform="matrix(1,0,0,1,0,0)"><path stroke-linecap="round" stroke-linejoin="round" fill-opacity="0" stroke="rgb(18,19,49)" stroke-opacity="1" stroke-width="2.3800000000000003" d=" M17.808000564575195,9.10099983215332 C17.808000564575195,12.387999534606934 15.144000053405762,15.052000045776367 11.857000350952148,15.052000045776367 C8.569999694824219,15.052000045776367 5.906000137329102,12.387999534606934 5.906000137329102,9.10099983215332 C5.906000137329102,5.814000129699707 8.569999694824219,3.1489999294281006 11.857000350952148,3.1489999294281006 C15.144000053405762,3.1489999294281006 17.808000564575195,5.814000129699707 17.808000564575195,9.10099983215332z"/></g></g><g transform="matrix(3.4996984004974365,0.046075865626335144,-0.046075865626335144,3.4996984004974365,230.21771240234375,268.35546875)" opacity="1" style="display: block;"><g opacity="1" transform="matrix(1,0,0,1,0,0)"><path stroke-linecap="round" stroke-linejoin="round" fill-opacity="0" stroke="rgb(18,19,49)" stroke-opacity="1" stroke-width="2.3800000000000003" d=" M-9.144000053405762,9.10099983215332 C-9.144000053405762,12.387999534606934 -11.807999610900879,15.052000045776367 -15.095000267028809,15.052000045776367 C-18.381999969482422,15.052000045776367 -21.04599952697754,12.387999534606934 -21.04599952697754,9.10099983215332 C-21.04599952697754,5.814000129699707 -18.381999969482422,3.1489999294281006 -15.095000267028809,3.1489999294281006 C-11.807999610900879,3.1489999294281006 -9.144000053405762,5.814000129699707 -9.144000053405762,9.10099983215332z"/></g></g><g class="com" style="display: none;"><g><path/></g><g><path/></g><g><path/></g><g><path/></g><g><path/></g><g><path/></g><g><path/></g><g><path/></g><g><path/></g><g><path/></g><g><path/></g><g><path/></g></g></g></svg>