<?xml version="1.0" encoding="iso-8859-1"?>
<svg version="1.1" id="Layer_1" xmlns="http://www.w3.org/2000/svg" xmlns:xlink="http://www.w3.org/1999/xlink" x="0px" y="0px"
	 viewBox="0 0 512 512" style="enable-background:new 0 0 512 512;" xml:space="preserve">
<g>
	<path d="M85.3,28.4v28.4c15.7,0,28.4,12.8,28.4,28.4c0,15.7-12.8,28.4-28.4,28.4c-15.7,0-28.4-12.8-28.4-28.4
		c0-15.7,12.8-28.4,28.4-28.4V28.4V0C38.2,0,0,38.2,0,85.3c0,47.1,38.2,85.3,85.3,85.3c47.1,0,85.3-38.2,85.3-85.3
		C170.6,38.2,132.5,0,85.3,0V28.4z"/>
	<path d="M426.7,28.4v28.4c15.7,0,28.4,12.8,28.4,28.4c0,15.7-12.8,28.4-28.4,28.4c-15.7,0-28.4-12.8-28.4-28.4
		c0-15.7,12.8-28.4,28.4-28.4V28.4V0c-47.1,0-85.3,38.2-85.3,85.3c0,47.1,38.2,85.3,85.3,85.3c47.1,0,85.3-38.2,85.3-85.3
		C512,38.2,473.8,0,426.7,0V28.4z"/>
	<path d="M85.3,369.8v28.4c15.7,0,28.4,12.8,28.4,28.4c0,15.7-12.8,28.4-28.4,28.4c-15.7,0-28.4-12.8-28.4-28.4
		c0-15.7,12.8-28.4,28.4-28.4V369.8v-28.4C38.2,341.4,0,379.5,0,426.7C0,473.8,38.2,512,85.3,512c47.1,0,85.3-38.2,85.3-85.3
		c0-47.1-38.2-85.3-85.3-85.3V369.8z"/>
	<path d="M426.7,369.8v28.4c15.7,0,28.4,12.8,28.4,28.4c0,15.7-12.8,28.4-28.4,28.4c-15.7,0-28.4-12.8-28.4-28.4
		c0-15.7,12.8-28.4,28.4-28.4V369.8v-28.4c-47.1,0-85.3,38.2-85.3,85.3c0,47.1,38.2,85.3,85.3,85.3c47.1,0,85.3-38.2,85.3-85.3
		c0-47.1-38.2-85.3-85.3-85.3V369.8z"/>
	<path d="M56.9,142.2v227.6c0,15.7,12.7,28.4,28.4,28.4s28.4-12.7,28.4-28.4V142.2c0-15.7-12.7-28.4-28.4-28.4
		S56.9,126.5,56.9,142.2"/>
	<path d="M142.2,113.8h227.6c15.7,0,28.4-12.7,28.4-28.4c0-15.7-12.7-28.4-28.4-28.4H142.2c-15.7,0-28.4,12.7-28.4,28.4
		C113.8,101,126.5,113.8,142.2,113.8"/>
	<path d="M142.2,455.1h227.6c15.7,0,28.4-12.7,28.4-28.4c0-15.7-12.7-28.4-28.4-28.4H142.2c-15.7,0-28.4,12.7-28.4,28.4
		C113.8,442.4,126.5,455.1,142.2,455.1"/>
	<path d="M398.2,142.2v227.6c0,15.7,12.7,28.4,28.4,28.4s28.4-12.7,28.4-28.4V142.2c0-15.7-12.7-28.4-28.4-28.4
		S398.2,126.5,398.2,142.2"/>
</g>
</svg>