<svg class="svg-icon" style="width: 1em; height: 1em;vertical-align: middle;fill: currentColor;overflow: hidden;" viewBox="0 0 1024 1024" version="1.1" xmlns="http://www.w3.org/2000/svg"><path d="M850.688 554.666667A341.504 341.504 0 0 1 554.666667 850.688V938.666667h-85.333334v-87.978667A341.504 341.504 0 0 1 173.312 554.666667H85.333333v-85.333334h87.978667A341.504 341.504 0 0 1 469.333333 173.312V85.333333h85.333334v87.978667A341.504 341.504 0 0 1 850.688 469.333333H938.666667v85.333334h-87.978667zM512 768a256 256 0 1 0 0-512 256 256 0 0 0 0 512z m0-128a128 128 0 1 0 0-256 128 128 0 0 0 0 256z" fill="#000000" /></svg>